<?xml version="1.0" encoding="UTF-8" standalone="no"?>
<!DOCTYPE svg PUBLIC "-//W3C//DTD SVG 1.1//EN"
 "http://www.w3.org/Graphics/SVG/1.1/DTD/svg11.dtd">
<!-- Generated by graphviz version 2.38.0 (20140413.2041)
 -->
<!-- Title: models_diagram Pages: 1 -->
<svg width="392pt" height="240pt"
 viewBox="0.00 0.00 391.81 240.00" xmlns="http://www.w3.org/2000/svg" xmlns:xlink="http://www.w3.org/1999/xlink">
<g id="graph0" class="graph" transform="scale(1 1) rotate(0) translate(4 236)">
<title>models_diagram</title>
<polygon fill="none" stroke="none" points="-4,4 -4,-236 387.809,-236 387.809,4 -4,4"/>
<!-- _diagram_info -->
<g id="node1" class="node"><title>_diagram_info</title>
<text text-anchor="start" x="8" y="-217.6" font-family="Times,serif" font-size="13.00">Models diagram</text>
<text text-anchor="start" x="8" y="-204.6" font-family="Times,serif" font-size="13.00">Date: Jul 15 2016 &#45; 09:59</text>
<text text-anchor="start" x="8" y="-191.6" font-family="Times,serif" font-size="13.00">Migration version: 20160714102406</text>
<text text-anchor="start" x="8" y="-178.6" font-family="Times,serif" font-size="13.00">Generated by RailRoady 1.5.1</text>
<text text-anchor="start" x="8" y="-165.6" font-family="Times,serif" font-size="13.00">http://railroady.prestonlee.com</text>
</g>
<!-- Restaurant -->
<g id="node2" class="node"><title>Restaurant</title>
<ellipse fill="none" stroke="black" cx="252.688" cy="-91" rx="47.8496" ry="18"/>
<text text-anchor="middle" x="252.688" y="-86.8" font-family="Times,serif" font-size="14.00">Restaurant</text>
</g>
<!-- Review -->
<g id="node3" class="node"><title>Review</title>
<ellipse fill="none" stroke="black" cx="346.688" cy="-18" rx="37.2421" ry="18"/>
<text text-anchor="middle" x="346.688" y="-13.8" font-family="Times,serif" font-size="14.00">Review</text>
</g>
<!-- Restaurant&#45;&gt;Review -->
<g id="edge1" class="edge"><title>Restaurant&#45;&gt;Review</title>
<path fill="none" stroke="#43968c" d="M279.794,-69.526C292.135,-60.2047 306.72,-49.1884 319.117,-39.8251"/>
<ellipse fill="none" stroke="#43968c" cx="276.276" cy="-72.1832" rx="4.00002" ry="4.00002"/>
<polygon fill="#43968c" stroke="#43968c" points="319.315,-39.6752 330.007,-37.2388 323.305,-36.6616 327.295,-33.648 327.295,-33.648 327.295,-33.648 323.305,-36.6616 324.582,-30.0572 319.315,-39.6752 319.315,-39.6752"/>
</g>
<!-- User -->
<g id="node4" class="node"><title>User</title>
<ellipse fill="none" stroke="black" cx="252.688" cy="-195.5" rx="27" ry="18"/>
<text text-anchor="middle" x="252.688" y="-191.3" font-family="Times,serif" font-size="14.00">User</text>
</g>
<!-- User&#45;&gt;Restaurant -->
<g id="edge2" class="edge"><title>User&#45;&gt;Restaurant</title>
<path fill="none" stroke="#211ad4" d="M239.808,-170.907C234.329,-157.983 229.966,-141.657 233.688,-127 234.463,-123.949 235.563,-120.876 236.848,-117.885"/>
<ellipse fill="none" stroke="#211ad4" cx="241.624" cy="-174.838" rx="4.00002" ry="4.00002"/>
<polygon fill="#211ad4" stroke="#211ad4" points="236.947,-117.688 245.439,-110.751 239.18,-113.215 241.413,-108.741 241.413,-108.741 241.413,-108.741 239.18,-113.215 237.387,-106.731 236.947,-117.688 236.947,-117.688"/>
</g>
<!-- User&#45;&gt;Restaurant -->
<g id="edge4" class="edge"><title>User&#45;&gt;Restaurant</title>
<path fill="none" stroke="#ea8d5d" d="M252.688,-166.974C252.688,-152.155 252.688,-133.94 252.688,-119.175"/>
<polygon fill="#ea8d5d" stroke="#ea8d5d" points="252.688,-167.112 248.188,-177.112 252.688,-172.112 252.688,-177.112 252.688,-177.112 252.688,-177.112 252.688,-172.112 257.188,-177.112 252.688,-167.112 252.688,-167.112"/>
<polygon fill="#ea8d5d" stroke="#ea8d5d" points="252.688,-119.131 257.188,-109.131 252.688,-114.131 252.688,-109.131 252.688,-109.131 252.688,-109.131 252.688,-114.131 248.188,-109.131 252.688,-119.131 252.688,-119.131"/>
<text text-anchor="middle" x="312.16" y="-129.8" font-family="Times,serif" font-size="14.00">reviewed_restaurants</text>
</g>
<!-- User&#45;&gt;Review -->
<g id="edge3" class="edge"><title>User&#45;&gt;Review</title>
<path fill="none" stroke="#adc325" d="M287.178,-189.474C315.512,-183.329 353.925,-169.908 372.688,-141 391.799,-111.555 376.285,-70.4863 362.331,-44.3185"/>
<ellipse fill="none" stroke="#adc325" cx="283.032" cy="-190.304" rx="4.00001" ry="4.00001"/>
<polygon fill="#adc325" stroke="#adc325" points="362.221,-44.1222 361.253,-33.1992 359.775,-39.7617 357.328,-35.4011 357.328,-35.4011 357.328,-35.4011 359.775,-39.7617 353.404,-37.6029 362.221,-44.1222 362.221,-44.1222"/>
</g>
</g>
</svg>
