<?xml version="1.0" encoding="UTF-8" standalone="no"?>
<!DOCTYPE svg PUBLIC "-//W3C//DTD SVG 1.1//EN"
 "http://www.w3.org/Graphics/SVG/1.1/DTD/svg11.dtd">
<!-- Generated by graphviz version 2.38.0 (20140413.2041)
 -->
<!-- Title: models_diagram Pages: 1 -->
<svg width="607pt" height="594pt"
 viewBox="0.00 0.00 606.55 594.00" xmlns="http://www.w3.org/2000/svg" xmlns:xlink="http://www.w3.org/1999/xlink">
<g id="graph0" class="graph" transform="scale(1 1) rotate(0) translate(4 590)">
<title>models_diagram</title>
<polygon fill="none" stroke="none" points="-4,4 -4,-590 602.55,-590 602.55,4 -4,4"/>
<!-- _diagram_info -->
<g id="node1" class="node"><title>_diagram_info</title>
<text text-anchor="start" x="8" y="-487.6" font-family="Times,serif" font-size="13.00">Models diagram</text>
<text text-anchor="start" x="8" y="-474.6" font-family="Times,serif" font-size="13.00">Date: Jul 14 2016 &#45; 15:28</text>
<text text-anchor="start" x="8" y="-461.6" font-family="Times,serif" font-size="13.00">Migration version: 20160714102406</text>
<text text-anchor="start" x="8" y="-448.6" font-family="Times,serif" font-size="13.00">Generated by RailRoady 1.5.1</text>
<text text-anchor="start" x="8" y="-435.6" font-family="Times,serif" font-size="13.00">http://railroady.prestonlee.com</text>
</g>
<!-- Restaurant -->
<g id="node2" class="node"><title>Restaurant</title>
<path fill="none" stroke="black" d="M254.825,-166.5C254.825,-166.5 478.55,-166.5 478.55,-166.5 484.55,-166.5 490.55,-172.5 490.55,-178.5 490.55,-178.5 490.55,-282.5 490.55,-282.5 490.55,-288.5 484.55,-294.5 478.55,-294.5 478.55,-294.5 254.825,-294.5 254.825,-294.5 248.825,-294.5 242.825,-288.5 242.825,-282.5 242.825,-282.5 242.825,-178.5 242.825,-178.5 242.825,-172.5 248.825,-166.5 254.825,-166.5"/>
<text text-anchor="middle" x="366.688" y="-279.3" font-family="Times,serif" font-size="14.00">Restaurant</text>
<polyline fill="none" stroke="black" points="242.825,-272.5 490.55,-272.5 "/>
<text text-anchor="start" x="250.825" y="-257.3" font-family="Times,serif" font-size="14.00">id :integer</text>
<text text-anchor="start" x="250.825" y="-243.3" font-family="Times,serif" font-size="14.00">name :character varying</text>
<text text-anchor="start" x="250.825" y="-229.3" font-family="Times,serif" font-size="14.00">rating :integer</text>
<text text-anchor="start" x="250.825" y="-215.3" font-family="Times,serif" font-size="14.00">created_at :timestamp without time zone</text>
<text text-anchor="start" x="250.825" y="-201.3" font-family="Times,serif" font-size="14.00">updated_at :timestamp without time zone</text>
<text text-anchor="start" x="250.825" y="-187.3" font-family="Times,serif" font-size="14.00">description :text</text>
<text text-anchor="start" x="250.825" y="-173.3" font-family="Times,serif" font-size="14.00">user_id :integer</text>
</g>
<!-- Review -->
<g id="node3" class="node"><title>Review</title>
<path fill="none" stroke="black" d="M362.825,-0.5C362.825,-0.5 586.55,-0.5 586.55,-0.5 592.55,-0.5 598.55,-6.5 598.55,-12.5 598.55,-12.5 598.55,-116.5 598.55,-116.5 598.55,-122.5 592.55,-128.5 586.55,-128.5 586.55,-128.5 362.825,-128.5 362.825,-128.5 356.825,-128.5 350.825,-122.5 350.825,-116.5 350.825,-116.5 350.825,-12.5 350.825,-12.5 350.825,-6.5 356.825,-0.5 362.825,-0.5"/>
<text text-anchor="middle" x="474.688" y="-113.3" font-family="Times,serif" font-size="14.00">Review</text>
<polyline fill="none" stroke="black" points="350.825,-106.5 598.55,-106.5 "/>
<text text-anchor="start" x="358.825" y="-91.3" font-family="Times,serif" font-size="14.00">id :integer</text>
<text text-anchor="start" x="358.825" y="-77.3" font-family="Times,serif" font-size="14.00">thoughts :text</text>
<text text-anchor="start" x="358.825" y="-63.3" font-family="Times,serif" font-size="14.00">rating :integer</text>
<text text-anchor="start" x="358.825" y="-49.3" font-family="Times,serif" font-size="14.00">created_at :timestamp without time zone</text>
<text text-anchor="start" x="358.825" y="-35.3" font-family="Times,serif" font-size="14.00">updated_at :timestamp without time zone</text>
<text text-anchor="start" x="358.825" y="-21.3" font-family="Times,serif" font-size="14.00">restaurant_id :integer</text>
<text text-anchor="start" x="358.825" y="-7.3" font-family="Times,serif" font-size="14.00">user_id :integer</text>
</g>
<!-- Restaurant&#45;&gt;Review -->
<g id="edge1" class="edge"><title>Restaurant&#45;&gt;Review</title>
<path fill="none" stroke="#89a83b" d="M413.02,-159.144C417.803,-151.881 422.667,-144.494 427.46,-137.217"/>
<ellipse fill="none" stroke="#89a83b" cx="410.643" cy="-162.753" rx="4.00002" ry="4.00002"/>
<polygon fill="#89a83b" stroke="#89a83b" points="427.543,-137.09 436.801,-131.213 430.293,-132.914 433.043,-128.738 433.043,-128.738 433.043,-128.738 430.293,-132.914 429.285,-126.263 427.543,-137.09 427.543,-137.09"/>
</g>
<!-- User -->
<g id="node4" class="node"><title>User</title>
<path fill="none" stroke="black" d="M237.053,-345.5C237.053,-345.5 532.323,-345.5 532.323,-345.5 538.323,-345.5 544.323,-351.5 544.323,-357.5 544.323,-357.5 544.323,-573.5 544.323,-573.5 544.323,-579.5 538.323,-585.5 532.323,-585.5 532.323,-585.5 237.053,-585.5 237.053,-585.5 231.053,-585.5 225.053,-579.5 225.053,-573.5 225.053,-573.5 225.053,-357.5 225.053,-357.5 225.053,-351.5 231.053,-345.5 237.053,-345.5"/>
<text text-anchor="middle" x="384.688" y="-570.3" font-family="Times,serif" font-size="14.00">User</text>
<polyline fill="none" stroke="black" points="225.053,-563.5 544.323,-563.5 "/>
<text text-anchor="start" x="233.053" y="-548.3" font-family="Times,serif" font-size="14.00">id :integer</text>
<text text-anchor="start" x="233.053" y="-534.3" font-family="Times,serif" font-size="14.00">email :character varying</text>
<text text-anchor="start" x="233.053" y="-520.3" font-family="Times,serif" font-size="14.00">encrypted_password :character varying</text>
<text text-anchor="start" x="233.053" y="-506.3" font-family="Times,serif" font-size="14.00">reset_password_token :character varying</text>
<text text-anchor="start" x="233.053" y="-492.3" font-family="Times,serif" font-size="14.00">reset_password_sent_at :timestamp without time zone</text>
<text text-anchor="start" x="233.053" y="-478.3" font-family="Times,serif" font-size="14.00">remember_created_at :timestamp without time zone</text>
<text text-anchor="start" x="233.053" y="-464.3" font-family="Times,serif" font-size="14.00">sign_in_count :integer</text>
<text text-anchor="start" x="233.053" y="-450.3" font-family="Times,serif" font-size="14.00">current_sign_in_at :timestamp without time zone</text>
<text text-anchor="start" x="233.053" y="-436.3" font-family="Times,serif" font-size="14.00">last_sign_in_at :timestamp without time zone</text>
<text text-anchor="start" x="233.053" y="-422.3" font-family="Times,serif" font-size="14.00">current_sign_in_ip :inet</text>
<text text-anchor="start" x="233.053" y="-408.3" font-family="Times,serif" font-size="14.00">last_sign_in_ip :inet</text>
<text text-anchor="start" x="233.053" y="-394.3" font-family="Times,serif" font-size="14.00">created_at :timestamp without time zone</text>
<text text-anchor="start" x="233.053" y="-380.3" font-family="Times,serif" font-size="14.00">updated_at :timestamp without time zone</text>
<text text-anchor="start" x="233.053" y="-366.3" font-family="Times,serif" font-size="14.00">provider :character varying</text>
<text text-anchor="start" x="233.053" y="-352.3" font-family="Times,serif" font-size="14.00">uid :character varying</text>
</g>
<!-- User&#45;&gt;Restaurant -->
<g id="edge2" class="edge"><title>User&#45;&gt;Restaurant</title>
<path fill="none" stroke="#c2356d" d="M366.476,-337.258C366.184,-333.805 365.92,-330.381 365.688,-327 365.261,-320.792 365.65,-319.222 365.688,-313 365.704,-310.307 365.724,-307.564 365.746,-304.793"/>
<ellipse fill="none" stroke="#c2356d" cx="366.847" cy="-341.375" rx="4" ry="4"/>
<polygon fill="#c2356d" stroke="#c2356d" points="365.747,-304.679 370.336,-294.72 365.791,-299.68 365.836,-294.68 365.836,-294.68 365.836,-294.68 365.791,-299.68 361.336,-294.64 365.747,-304.679 365.747,-304.679"/>
</g>
<!-- User&#45;&gt;Restaurant -->
<g id="edge4" class="edge"><title>User&#45;&gt;Restaurant</title>
<path fill="none" stroke="#1f9e88" d="M374.688,-335.057C373.886,-324.68 373.095,-314.442 372.341,-304.678"/>
<polygon fill="#1f9e88" stroke="#1f9e88" points="374.706,-335.299 370.99,-345.616 375.092,-340.285 375.477,-345.27 375.477,-345.27 375.477,-345.27 375.092,-340.285 379.963,-344.923 374.706,-335.299 374.706,-335.299"/>
<polygon fill="#1f9e88" stroke="#1f9e88" points="372.34,-304.658 376.056,-294.341 371.954,-299.673 371.569,-294.688 371.569,-294.688 371.569,-294.688 371.954,-299.673 367.083,-295.034 372.34,-304.658 372.34,-304.658"/>
<text text-anchor="middle" x="432.16" y="-315.8" font-family="Times,serif" font-size="14.00">reviewed_restaurants</text>
</g>
<!-- User&#45;&gt;Review -->
<g id="edge3" class="edge"><title>User&#45;&gt;Review</title>
<path fill="none" stroke="#a96600" d="M490.474,-338.29C492.335,-334.551 494.079,-330.785 495.688,-327 521.131,-267.115 511.638,-192.633 498.277,-138.494"/>
<ellipse fill="none" stroke="#a96600" cx="488.599" cy="-341.894" rx="4.00002" ry="4.00002"/>
<polygon fill="#a96600" stroke="#a96600" points="498.231,-138.316 500.103,-127.511 496.988,-133.473 495.745,-128.63 495.745,-128.63 495.745,-128.63 496.988,-133.473 491.386,-129.749 498.231,-138.316 498.231,-138.316"/>
</g>
</g>
</svg>
